# xmcd CD database file
#
# Track frame offsets:
#	150
#	26598
#	50555
#	69737
#	95245
#	117972
#	148366
#	177110
#	198555
#	221197
#	250783
#	280945
#
# Disc length: 4153 seconds
#
# Revision: 0
# Processed by: cddbd v1.5.2PL0 Copyright (c) Steve Scherf et al.
# Submitted via: CDex 1.70beta2
#
DISCID=c410370c
DTITLE=Spyro Gyra - Good To Go-Go
DYEAR=2007
DGENRE=Jazz
TTITLE0=Simple Pleasures
TTITLE1=Get Busy
TTITLE2=Jam Up
TTITLE3=The Left Bank
TTITLE4=Funkyard Dog
TTITLE5=Along For The Ride
TTITLE6=Island Time
TTITLE7=Wassup!
TTITLE8=Easy Street
TTITLE9=A Winter Tale
TTITLE10=Good To Go-Go
TTITLE11=Newroses
EXTD=YEAR: 2007
EXTT0=
EXTT1=
EXTT2=
EXTT3=
EXTT4=
EXTT5=
EXTT6=
EXTT7=
EXTT8=
EXTT9=
EXTT10=
EXTT11=
PLAYORDER=
